<svg width="85" height="89" viewBox="0 0 85 89" fill="none" xmlns="http://www.w3.org/2000/svg">
<path d="M38 32.375C39.5833 33.2083 41.0833 33.625 42.5 33.625C43.9167 33.625 45.3958 33.2083 46.9375 32.375C48.5208 31.5417 49.7083 30.5208 50.5 29.3125C50.4583 28.1458 49.5208 27.1667 47.6875 26.375C45.8542 25.5833 44.125 25.1875 42.5 25.1875C40.875 25.1875 39.1458 25.5833 37.3125 26.375C35.4792 27.125 34.5417 28.1042 34.5 29.3125C35.2917 30.5208 36.4583 31.5417 38 32.375ZM45.3125 15.875C44.5208 15.0833 43.5833 14.6875 42.5 14.6875C41.4167 14.6875 40.4792 15.0833 39.6875 15.875C38.8958 16.6667 38.5 17.6042 38.5 18.6875C38.5 19.7708 38.8958 20.7083 39.6875 21.5C40.4792 22.2917 41.4167 22.6875 42.5 22.6875C43.5833 22.6875 44.5208 22.2917 45.3125 21.5C46.1042 20.7083 46.5 19.7708 46.5 18.6875C46.5 17.6042 46.1042 16.6667 45.3125 15.875ZM33.0625 14.625C35.6875 12 38.8333 10.6875 42.5 10.6875C46.1667 10.6875 49.2917 12 51.875 14.625C54.5 17.2083 55.8125 20.3333 55.8125 24C55.8125 27.6667 54.5 30.8125 51.875 33.4375C49.2917 36.0208 46.1667 37.3125 42.5 37.3125C38.8333 37.3125 35.6875 36.0208 33.0625 33.4375C30.4792 30.8125 29.1875 27.6667 29.1875 24C29.1875 20.3333 30.4792 17.2083 33.0625 14.625Z" fill="#888888"/>
<path d="M17.7083 56.622H23.6263C25.2837 56.622 26.589 57.04 27.5423 57.876C28.5103 58.6973 28.9943 59.8707 28.9943 61.396C28.9943 62.9507 28.5177 64.1313 27.5643 64.938C26.611 65.73 25.2983 66.126 23.6263 66.126H19.9523V72H17.7083V56.622ZM23.3843 64.256C24.411 64.256 25.225 64.0433 25.8263 63.618C26.4277 63.1927 26.7283 62.452 26.7283 61.396C26.7283 60.34 26.4277 59.5993 25.8263 59.174C25.225 58.734 24.411 58.514 23.3843 58.514H19.9523V64.256H23.3843ZM35.5691 72.33C33.6184 72.33 32.0857 71.846 30.9711 70.878C29.8711 69.8953 29.3211 68.5167 29.3211 66.742C29.3211 65.0113 29.8124 63.64 30.7951 62.628C31.7924 61.616 33.2077 61.11 35.0411 61.11C36.2584 61.11 37.2924 61.3447 38.1431 61.814C38.9937 62.2687 39.6317 62.9067 40.0571 63.728C40.4971 64.5347 40.7171 65.4587 40.7171 66.5V67.6H31.4331C31.5064 68.5973 31.9244 69.3453 32.6871 69.844C33.4644 70.328 34.5131 70.57 35.8331 70.57C36.5077 70.57 37.1897 70.5113 37.8791 70.394C38.5684 70.262 39.1771 70.0933 39.7051 69.888V71.67C39.2357 71.8607 38.6124 72.0147 37.8351 72.132C37.0724 72.264 36.3171 72.33 35.5691 72.33ZM38.6271 66.038C38.5977 65.0407 38.2677 64.2707 37.6371 63.728C37.0211 63.1707 36.1411 62.892 34.9971 62.892C33.8824 62.892 33.0171 63.178 32.4011 63.75C31.7851 64.322 31.4624 65.0847 31.4331 66.038H38.6271ZM43.1458 61.44H45.3018V63.332C45.7418 62.6867 46.3578 62.21 47.1498 61.902C47.9565 61.594 48.8878 61.44 49.9438 61.44V63.178C48.8145 63.178 47.8465 63.3613 47.0398 63.728C46.2332 64.0947 45.6758 64.674 45.3678 65.466V72H43.1458V61.44ZM52.6589 63.156H51.0529V61.44H52.6589V59.438C52.6589 58.2207 53.0476 57.282 53.8249 56.622C54.6023 55.962 55.5703 55.632 56.7289 55.632C57.3156 55.632 57.8876 55.72 58.4449 55.896V57.7C58.0343 57.5387 57.6089 57.458 57.1689 57.458C56.4209 57.458 55.8489 57.6413 55.4529 58.008C55.0716 58.36 54.8809 58.8807 54.8809 59.57V61.44H62.0089V72H59.7869V63.156H54.8809V72H52.6589V63.156ZM60.8869 59.372C60.5056 59.372 60.1903 59.2473 59.9409 58.998C59.6916 58.7487 59.5669 58.4407 59.5669 58.074C59.5669 57.7073 59.6916 57.3993 59.9409 57.15C60.2049 56.9007 60.5203 56.776 60.8869 56.776C61.2536 56.776 61.5616 56.9007 61.8109 57.15C62.0749 57.3993 62.2069 57.7073 62.2069 58.074C62.2069 58.4407 62.0749 58.7487 61.8109 58.998C61.5616 59.2473 61.2536 59.372 60.8869 59.372ZM65.0599 55.742H67.2819V72H65.0599V55.742Z" fill="#888888"/>
</svg>
