<svg width="85" height="89" viewBox="0 0 85 89" fill="none" xmlns="http://www.w3.org/2000/svg">
<path d="M47.8125 12L54.5 18.6875V33.3125C54.5 34.0625 54.2292 34.7083 53.6875 35.25C53.1875 35.75 52.5625 36 51.8125 36H33.1875C32.4375 36 31.7917 35.75 31.25 35.25C30.75 34.7083 30.5 34.0625 30.5 33.3125V14.6875C30.5 13.9375 30.75 13.3125 31.25 12.8125C31.7917 12.2708 32.4375 12 33.1875 12H47.8125ZM35.8125 17.3125V20H42.5V17.3125H35.8125ZM49.1875 30.6875V28H35.8125V30.6875H49.1875ZM49.1875 25.3125V22.6875H35.8125V25.3125H49.1875ZM46.5 20H51.8125L46.5 14.6875V20Z" fill="white"/>
<path d="M17.9984 56.622H28.1404V58.514H20.2424V63.42H26.1384V65.202H20.2424V72H17.9984V56.622ZM34.3767 72.33C32.426 72.33 30.8933 71.846 29.7787 70.878C28.6787 69.8953 28.1287 68.5167 28.1287 66.742C28.1287 65.0113 28.62 63.64 29.6027 62.628C30.6 61.616 32.0153 61.11 33.8487 61.11C35.066 61.11 36.1 61.3447 36.9507 61.814C37.8013 62.2687 38.4393 62.9067 38.8647 63.728C39.3047 64.5347 39.5247 65.4587 39.5247 66.5V67.6H30.2407C30.314 68.5973 30.732 69.3453 31.4947 69.844C32.272 70.328 33.3207 70.57 34.6407 70.57C35.3153 70.57 35.9973 70.5113 36.6867 70.394C37.376 70.262 37.9847 70.0933 38.5127 69.888V71.67C38.0433 71.8607 37.42 72.0147 36.6427 72.132C35.88 72.264 35.1247 72.33 34.3767 72.33ZM37.4347 66.038C37.4053 65.0407 37.0753 64.2707 36.4447 63.728C35.8287 63.1707 34.9487 62.892 33.8047 62.892C32.69 62.892 31.8247 63.178 31.2087 63.75C30.5927 64.322 30.27 65.0847 30.2407 66.038H37.4347ZM47.7614 72.33C45.8108 72.33 44.2781 71.846 43.1634 70.878C42.0634 69.8953 41.5134 68.5167 41.5134 66.742C41.5134 65.0113 42.0048 63.64 42.9874 62.628C43.9848 61.616 45.4001 61.11 47.2334 61.11C48.4508 61.11 49.4848 61.3447 50.3354 61.814C51.1861 62.2687 51.8241 62.9067 52.2494 63.728C52.6894 64.5347 52.9094 65.4587 52.9094 66.5V67.6H43.6254C43.6988 68.5973 44.1168 69.3453 44.8794 69.844C45.6568 70.328 46.7054 70.57 48.0254 70.57C48.7001 70.57 49.3821 70.5113 50.0714 70.394C50.7608 70.262 51.3694 70.0933 51.8974 69.888V71.67C51.4281 71.8607 50.8048 72.0147 50.0274 72.132C49.2648 72.264 48.5094 72.33 47.7614 72.33ZM50.8194 66.038C50.7901 65.0407 50.4601 64.2707 49.8294 63.728C49.2134 63.1707 48.3334 62.892 47.1894 62.892C46.0748 62.892 45.2094 63.178 44.5934 63.75C43.9774 64.322 43.6548 65.0847 43.6254 66.038H50.8194ZM60.4422 72.33C59.3862 72.33 58.4329 72.1027 57.5822 71.648C56.7462 71.1787 56.0862 70.526 55.6022 69.69C55.1329 68.8393 54.8982 67.8567 54.8982 66.742C54.8982 65.642 55.1329 64.6667 55.6022 63.816C56.0862 62.9653 56.7462 62.3053 57.5822 61.836C58.4329 61.352 59.3862 61.11 60.4422 61.11C62.3489 61.11 63.7935 61.6893 64.7762 62.848V55.742H66.9982V72H64.8422V70.46C64.2555 71.1053 63.6102 71.582 62.9062 71.89C62.2169 72.1833 61.3955 72.33 60.4422 72.33ZM60.9482 70.57C61.8575 70.57 62.6495 70.3353 63.3242 69.866C64.0135 69.382 64.4975 68.7367 64.7762 67.93V65.554C64.5269 64.7473 64.0502 64.102 63.3462 63.618C62.6569 63.134 61.8575 62.892 60.9482 62.892C60.2295 62.892 59.5769 63.0533 58.9902 63.376C58.4182 63.6987 57.9635 64.1533 57.6262 64.74C57.3035 65.3267 57.1422 65.994 57.1422 66.742C57.1422 67.49 57.3035 68.1573 57.6262 68.744C57.9635 69.3307 58.4182 69.7853 58.9902 70.108C59.5769 70.416 60.2295 70.57 60.9482 70.57Z" fill="white"/>
</svg>
