<svg width="145" height="89" viewBox="0 0 145 89" fill="none" xmlns="http://www.w3.org/2000/svg">
<path d="M73.8125 20V17.3125H71.1875V20H73.8125ZM73.8125 30.6875V22.6875H71.1875V30.6875H73.8125ZM63.0625 14.625C65.6875 12 68.8333 10.6875 72.5 10.6875C76.1667 10.6875 79.2917 12 81.875 14.625C84.5 17.2083 85.8125 20.3333 85.8125 24C85.8125 27.6667 84.5 30.8125 81.875 33.4375C79.2917 36.0208 76.1667 37.3125 72.5 37.3125C68.8333 37.3125 65.6875 36.0208 63.0625 33.4375C60.4792 30.8125 59.1875 27.6667 59.1875 24C59.1875 20.3333 60.4792 17.2083 63.0625 14.625Z" fill="#888888"/>
<path d="M24.7234 72.33C23.8434 72.33 22.9707 72.2493 22.1054 72.088C21.2547 71.9413 20.5581 71.736 20.0154 71.472V69.448C21.4234 70.108 22.9414 70.438 24.5694 70.438C26.8574 70.438 28.0014 69.668 28.0014 68.128C28.0014 67.6 27.8767 67.1747 27.6274 66.852C27.3781 66.5293 27.0187 66.2507 26.5494 66.016C26.0801 65.7667 25.3174 65.4293 24.2614 65.004C22.8094 64.4173 21.7607 63.772 21.1154 63.068C20.4701 62.364 20.1474 61.4767 20.1474 60.406C20.1474 59.5993 20.3674 58.888 20.8074 58.272C21.2474 57.6413 21.8634 57.1573 22.6554 56.82C23.4474 56.468 24.3567 56.292 25.3834 56.292C26.2194 56.292 26.9747 56.358 27.6494 56.49C28.3241 56.622 28.9841 56.8347 29.6294 57.128V59.064C28.3534 58.492 27.0627 58.206 25.7574 58.206C24.7014 58.206 23.8947 58.3967 23.3374 58.778C22.7801 59.1593 22.5014 59.702 22.5014 60.406C22.5014 60.89 22.6187 61.3007 22.8534 61.638C23.1027 61.9607 23.4621 62.254 23.9314 62.518C24.4154 62.7673 25.1267 63.0827 26.0654 63.464C27.1067 63.8893 27.9281 64.2927 28.5294 64.674C29.1307 65.0553 29.5854 65.5247 29.8934 66.082C30.2161 66.6247 30.3774 67.3067 30.3774 68.128C30.3774 69.4627 29.9007 70.4967 28.9474 71.23C27.9941 71.9633 26.5861 72.33 24.7234 72.33ZM38.0312 72.33C36.8432 72.33 35.7945 72.11 34.8852 71.67C33.9905 71.2153 33.2865 70.57 32.7732 69.734C32.2745 68.8833 32.0252 67.886 32.0252 66.742C32.0252 65.6127 32.2745 64.6227 32.7732 63.772C33.2718 62.9213 33.9758 62.2687 34.8852 61.814C35.7945 61.3447 36.8432 61.11 38.0312 61.11C39.2192 61.11 40.2678 61.3447 41.1772 61.814C42.0865 62.2687 42.7905 62.9213 43.2892 63.772C43.8025 64.6227 44.0592 65.6127 44.0592 66.742C44.0592 67.886 43.8025 68.8833 43.2892 69.734C42.7905 70.57 42.0865 71.2153 41.1772 71.67C40.2678 72.11 39.2192 72.33 38.0312 72.33ZM38.0312 70.57C39.1752 70.57 40.0845 70.218 40.7592 69.514C41.4338 68.81 41.7712 67.886 41.7712 66.742C41.7712 65.554 41.4338 64.6153 40.7592 63.926C40.0845 63.2367 39.1752 62.892 38.0312 62.892C36.8872 62.892 35.9778 63.2367 35.3032 63.926C34.6285 64.6153 34.2912 65.554 34.2912 66.742C34.2912 67.886 34.6285 68.81 35.3032 69.514C35.9778 70.218 36.8872 70.57 38.0312 70.57ZM52.7067 72.33C51.7534 72.33 50.9247 72.1833 50.2207 71.89C49.5314 71.582 48.8934 71.1053 48.3067 70.46V72H46.1507V55.742H48.3727V62.848C48.8567 62.276 49.48 61.8433 50.2427 61.55C51.0054 61.2567 51.8267 61.11 52.7067 61.11C53.7627 61.11 54.7087 61.352 55.5447 61.836C56.3954 62.3053 57.0554 62.9653 57.5247 63.816C58.0087 64.6667 58.2507 65.642 58.2507 66.742C58.2507 67.8567 58.0087 68.8393 57.5247 69.69C57.0554 70.526 56.3954 71.1787 55.5447 71.648C54.7087 72.1027 53.7627 72.33 52.7067 72.33ZM52.2007 70.57C52.9194 70.57 53.5647 70.416 54.1367 70.108C54.7234 69.7853 55.178 69.3307 55.5007 68.744C55.838 68.1573 56.0067 67.49 56.0067 66.742C56.0067 65.994 55.838 65.3267 55.5007 64.74C55.178 64.1533 54.7234 63.6987 54.1367 63.376C53.5647 63.0533 52.9194 62.892 52.2007 62.892C51.306 62.892 50.5067 63.134 49.8027 63.618C49.0987 64.102 48.622 64.7473 48.3727 65.554V67.93C48.6514 68.7367 49.128 69.382 49.8027 69.866C50.492 70.3353 51.2914 70.57 52.2007 70.57ZM60.6741 61.44H62.8301V63.332C63.2701 62.6867 63.8861 62.21 64.6781 61.902C65.4848 61.594 66.4161 61.44 67.4721 61.44V63.178C66.3428 63.178 65.3748 63.3613 64.5681 63.728C63.7615 64.0947 63.2041 64.674 62.8961 65.466V72H60.6741V61.44ZM74.6032 72.33C72.6526 72.33 71.1199 71.846 70.0052 70.878C68.9052 69.8953 68.3552 68.5167 68.3552 66.742C68.3552 65.0113 68.8466 63.64 69.8292 62.628C70.8266 61.616 72.2419 61.11 74.0752 61.11C75.2926 61.11 76.3266 61.3447 77.1772 61.814C78.0279 62.2687 78.6659 62.9067 79.0912 63.728C79.5312 64.5347 79.7512 65.4587 79.7512 66.5V67.6H70.4672C70.5406 68.5973 70.9586 69.3453 71.7212 69.844C72.4986 70.328 73.5472 70.57 74.8672 70.57C75.5419 70.57 76.2239 70.5113 76.9132 70.394C77.6026 70.262 78.2112 70.0933 78.7392 69.888V71.67C78.2699 71.8607 77.6466 72.0147 76.8692 72.132C76.1066 72.264 75.3512 72.33 74.6032 72.33ZM77.6612 66.038C77.6319 65.0407 77.3019 64.2707 76.6712 63.728C76.0552 63.1707 75.1752 62.892 74.0312 62.892C72.9166 62.892 72.0512 63.178 71.4352 63.75C70.8192 64.322 70.4966 65.0847 70.4672 66.038H77.6612ZM90.3226 61.44H92.4786V62.958C92.9772 62.3273 93.5859 61.8653 94.3046 61.572C95.0379 61.264 95.8006 61.11 96.5926 61.11C98.0006 61.11 99.0492 61.484 99.7386 62.232C100.428 62.98 100.773 63.9847 100.773 65.246V72H98.5506V65.466C98.5506 63.75 97.7292 62.892 96.0866 62.892C95.3826 62.892 94.7226 63.0607 94.1066 63.398C93.5052 63.7207 92.9846 64.2193 92.5446 64.894V72H90.3226V61.44ZM109.022 56.468H111.376L109.55 60.252H107.526L109.022 56.468ZM108.758 72.33C107.57 72.33 106.521 72.11 105.612 71.67C104.717 71.2153 104.013 70.57 103.5 69.734C103.001 68.8833 102.752 67.886 102.752 66.742C102.752 65.6127 103.001 64.6227 103.5 63.772C103.998 62.9213 104.702 62.2687 105.612 61.814C106.521 61.3447 107.57 61.11 108.758 61.11C109.946 61.11 110.994 61.3447 111.904 61.814C112.813 62.2687 113.517 62.9213 114.016 63.772C114.529 64.6227 114.786 65.6127 114.786 66.742C114.786 67.886 114.529 68.8833 114.016 69.734C113.517 70.57 112.813 71.2153 111.904 71.67C110.994 72.11 109.946 72.33 108.758 72.33ZM108.758 70.57C109.902 70.57 110.811 70.218 111.486 69.514C112.16 68.81 112.498 67.886 112.498 66.742C112.498 65.554 112.16 64.6153 111.486 63.926C110.811 63.2367 109.902 62.892 108.758 62.892C107.614 62.892 106.704 63.2367 106.03 63.926C105.355 64.6153 105.018 65.554 105.018 66.742C105.018 67.886 105.355 68.81 106.03 69.514C106.704 70.218 107.614 70.57 108.758 70.57ZM120.535 72.33C119.802 72.33 119.024 72.2347 118.203 72.044C117.382 71.868 116.736 71.626 116.267 71.318V69.426C116.839 69.7633 117.499 70.042 118.247 70.262C118.995 70.4673 119.721 70.57 120.425 70.57C121.217 70.57 121.796 70.4747 122.163 70.284C122.53 70.0933 122.713 69.7853 122.713 69.36C122.713 69.0373 122.625 68.7807 122.449 68.59C122.288 68.3847 122.002 68.2013 121.591 68.04C121.195 67.8787 120.594 67.688 119.787 67.468C118.922 67.2187 118.232 66.9693 117.719 66.72C117.22 66.456 116.839 66.126 116.575 65.73C116.326 65.334 116.201 64.8207 116.201 64.19C116.201 63.178 116.597 62.4153 117.389 61.902C118.196 61.374 119.274 61.11 120.623 61.11C121.327 61.11 122.016 61.176 122.691 61.308C123.366 61.44 123.908 61.6233 124.319 61.858V63.706C123.894 63.4567 123.366 63.2587 122.735 63.112C122.119 62.9653 121.488 62.892 120.843 62.892C120.066 62.892 119.472 62.9873 119.061 63.178C118.65 63.3687 118.445 63.706 118.445 64.19C118.445 64.498 118.533 64.7473 118.709 64.938C118.885 65.1287 119.164 65.2973 119.545 65.444C119.941 65.576 120.564 65.752 121.415 65.972C122.75 66.3387 123.674 66.7713 124.187 67.27C124.715 67.7687 124.979 68.458 124.979 69.338C124.979 70.2473 124.605 70.9733 123.857 71.516C123.109 72.0587 122.002 72.33 120.535 72.33Z" fill="#888888"/>
</svg>
