<svg width="71" height="89" viewBox="0 0 71 89" fill="none" xmlns="http://www.w3.org/2000/svg">
<path d="M24.8125 14.6875V33.3125H35.5V36H24.8125C24.1042 36 23.4792 35.7292 22.9375 35.1875C22.4375 34.6458 22.1875 34.0208 22.1875 33.3125V14.6875C22.1875 13.9792 22.4375 13.3542 22.9375 12.8125C23.4792 12.2708 24.1042 12 24.8125 12H35.5V14.6875H24.8125ZM42.1875 17.3125L48.8125 24L42.1875 30.6875L40.3125 28.75L43.75 25.3125H30.1875V22.6875H43.75L40.3125 19.1875L42.1875 17.3125Z" fill="#888888"/>
<path d="M21.7869 72.33C20.9069 72.33 20.0342 72.2493 19.1689 72.088C18.3182 71.9413 17.6215 71.736 17.0789 71.472V69.448C18.4869 70.108 20.0049 70.438 21.6329 70.438C23.9209 70.438 25.0649 69.668 25.0649 68.128C25.0649 67.6 24.9402 67.1747 24.6909 66.852C24.4415 66.5293 24.0822 66.2507 23.6129 66.016C23.1435 65.7667 22.3809 65.4293 21.3249 65.004C19.8729 64.4173 18.8242 63.772 18.1789 63.068C17.5335 62.364 17.2109 61.4767 17.2109 60.406C17.2109 59.5993 17.4309 58.888 17.8709 58.272C18.3109 57.6413 18.9269 57.1573 19.7189 56.82C20.5109 56.468 21.4202 56.292 22.4469 56.292C23.2829 56.292 24.0382 56.358 24.7129 56.49C25.3875 56.622 26.0475 56.8347 26.6929 57.128V59.064C25.4169 58.492 24.1262 58.206 22.8209 58.206C21.7649 58.206 20.9582 58.3967 20.4009 58.778C19.8435 59.1593 19.5649 59.702 19.5649 60.406C19.5649 60.89 19.6822 61.3007 19.9169 61.638C20.1662 61.9607 20.5255 62.254 20.9949 62.518C21.4789 62.7673 22.1902 63.0827 23.1289 63.464C24.1702 63.8893 24.9915 64.2927 25.5929 64.674C26.1942 65.0553 26.6489 65.5247 26.9569 66.082C27.2795 66.6247 27.4409 67.3067 27.4409 68.128C27.4409 69.4627 26.9642 70.4967 26.0109 71.23C25.0575 71.9633 23.6495 72.33 21.7869 72.33ZM33.3126 72.33C32.0366 72.33 31.01 72.0073 30.2326 71.362C29.47 70.702 29.0886 69.8147 29.0886 68.7C29.0886 67.5267 29.4553 66.6247 30.1886 65.994C30.9366 65.3487 31.9926 65.026 33.3566 65.026C34.8086 65.026 36.0406 65.3193 37.0526 65.906V65.356C37.0526 64.52 36.796 63.904 36.2826 63.508C35.784 63.0973 34.992 62.892 33.9066 62.892C33.2613 62.892 32.6306 62.958 32.0146 63.09C31.4133 63.2073 30.8706 63.376 30.3866 63.596V61.792C30.8266 61.5867 31.3986 61.4253 32.1026 61.308C32.8066 61.176 33.4886 61.11 34.1486 61.11C35.894 61.11 37.1846 61.4987 38.0206 62.276C38.8713 63.0387 39.2966 64.102 39.2966 65.466V72H37.2066V70.812C36.752 71.3107 36.2093 71.692 35.5786 71.956C34.9626 72.2053 34.2073 72.33 33.3126 72.33ZM33.8626 70.636C34.5666 70.636 35.2046 70.4967 35.7766 70.218C36.3486 69.9393 36.774 69.5507 37.0526 69.052V67.622C36.0993 67.006 35.036 66.698 33.8626 66.698C33.012 66.698 32.374 66.8667 31.9486 67.204C31.538 67.5267 31.3326 68.0253 31.3326 68.7C31.3326 69.9907 32.176 70.636 33.8626 70.636ZM43.352 59.372C42.9854 59.372 42.6774 59.2473 42.428 58.998C42.1787 58.7487 42.054 58.4407 42.054 58.074C42.054 57.7073 42.1787 57.3993 42.428 57.15C42.6774 56.9007 42.9854 56.776 43.352 56.776C43.7334 56.776 44.0487 56.9007 44.298 57.15C44.562 57.3993 44.694 57.7073 44.694 58.074C44.694 58.4407 44.562 58.7487 44.298 58.998C44.0487 59.2473 43.7334 59.372 43.352 59.372ZM42.23 61.44H44.496V72H42.23V61.44ZM47.554 61.44H49.71V63.332C50.15 62.6867 50.766 62.21 51.558 61.902C52.3647 61.594 53.296 61.44 54.352 61.44V63.178C53.2227 63.178 52.2547 63.3613 51.448 63.728C50.6414 64.0947 50.084 64.674 49.776 65.466V72H47.554V61.44Z" fill="#888888"/>
</svg>
