<svg width="24" height="47" viewBox="0 0 24 47" fill="none" xmlns="http://www.w3.org/2000/svg">
<path d="M14.5781 16.5938L19.2188 12L14.5781 7.40625L15.9844 6L21.9844 12L15.9844 18L14.5781 16.5938ZM9.42188 16.5938L8.01562 18L2.01562 12L8.01562 6L9.42188 7.40625L4.78125 12L9.42188 16.5938Z" fill="#888888"/>
<path d="M7.44 32.165L5.175 33.8V32.345L7.65 30.515H8.97V41H7.44V32.165ZM10.6242 39.995L12.8892 37.82C13.0892 37.62 13.3692 37.36 13.7292 37.04C14.2992 36.52 14.7342 36.1 15.0342 35.78C15.3342 35.46 15.5792 35.12 15.7692 34.76C15.9592 34.39 16.0542 33.995 16.0542 33.575C16.0542 32.955 15.8742 32.485 15.5142 32.165C15.1542 31.835 14.6292 31.67 13.9392 31.67C13.4692 31.67 12.9842 31.755 12.4842 31.925C11.9942 32.095 11.5342 32.345 11.1042 32.675V31.205C11.9442 30.595 12.9692 30.29 14.1792 30.29C15.2592 30.29 16.0992 30.58 16.6992 31.16C17.2992 31.73 17.5992 32.51 17.5992 33.5C17.5992 33.98 17.4942 34.44 17.2842 34.88C17.0842 35.32 16.7992 35.755 16.4292 36.185C16.0592 36.605 15.5592 37.12 14.9292 37.73L12.8892 39.725H17.9892V41H10.6242V39.995Z" fill="#888888"/>
</svg>
